<?xml version="1.0" ?>
<!-- Uploaded to: SVG Repo, www.svgrepo.com, Generator: SVG Repo Mixer Tools -->
<svg width="800px" height="800px" viewBox="0 0 24 24" version="1.1" xml:space="preserve" xmlns="http://www.w3.org/2000/svg" xmlns:xlink="http://www.w3.org/1999/xlink">
<style type="text/css">
	.st0{opacity:0.2;fill:none;stroke:#000000;stroke-width:5.000000e-02;stroke-miterlimit:10;}
</style>
<g id="Layer_Grid"/>
<g id="Layer_2">
<path d="M2.5,17.5C2.7,17.8,3,18,3.3,18H8v2H7c-0.6,0-1,0.4-1,1s0.4,1,1,1h11c0.6,0,1-0.4,1-1s-0.4-1-1-1h-1v-2h3   c0.4,0,0.7-0.2,0.9-0.5c0.2-0.3,0.2-0.7,0-1l-1.3-2.4c0.2-0.1,0.4-0.2,0.5-0.4c0.2-0.3,0.2-0.7,0-1l-1.8-2.8   c0.2-0.1,0.4-0.2,0.5-0.4c0.2-0.3,0.2-0.7-0.1-1L16.5,5c-0.4-0.6-1.3-0.6-1.7,0l-2.3,3.4c0,0,0,0.1-0.1,0.1L12.1,8   c0.3,0,0.6-0.2,0.8-0.5c0.2-0.3,0.2-0.7,0-1l-3-4.5c-0.4-0.6-1.3-0.6-1.7,0l-3,4.5c-0.2,0.3-0.2,0.7,0,1C5.3,7.8,5.6,8,5.9,8   l-2.4,3.4c-0.2,0.3-0.2,0.7-0.1,1C3.6,12.8,4,13,4.3,13h0l-1.9,3.5C2.3,16.8,2.3,17.2,2.5,17.5z M15,20h-5v-2h4.7H15V20z M15.7,7.4   L16.1,8h-0.8L15.7,7.4z M15.3,10H16l1.4,2.2h-2.8c0,0,0,0,0,0c0-0.1,0-0.2,0-0.4c0,0,0-0.1,0-0.1c0-0.1-0.1-0.2-0.1-0.3l0-0.1   L15.3,10z M17.4,14.2l1,1.8h-3.1l-1-1.8H17.4z M9,4.3L10.1,6H7.9L9,4.3z M8.4,8h1.3l2.1,3H6.3L8.4,8z M6.6,13h4.8l1.1,2l0.5,1H5   L6.6,13z"/>
</g>
</svg>