<svg width="315" height="124" viewBox="0 0 315 124" fill="none" xmlns="http://www.w3.org/2000/svg">
<path d="M1 1.45704H0.5V1.95704V50.9867V51.4867H1H11.7976H12.2976V50.9867V30.5792H32.2273V50.9867V51.4867H32.7273H43.5988H44.0988V50.9867V1.95704V1.45704H43.5988H32.7273H32.2273V1.95704V20.4505H12.2976V1.95704V1.45704H11.7976H1ZM54.3108 40.1039L54.3132 40.1083C56.4273 44.0166 59.3772 47.0547 63.158 49.2124C66.941 51.3715 71.2935 52.4438 76.2003 52.4438C81.1071 52.4438 85.4595 51.3715 89.2426 49.2125L89.2469 49.2099C93.0262 47.0029 95.9512 43.94 98.0158 40.0302L98.017 40.0279C100.081 36.0689 101.106 31.5212 101.106 26.3983C101.106 21.372 100.08 16.9206 98.0145 13.0584C95.9489 9.19671 93.0219 6.20672 89.2404 4.09821C85.4579 1.94 81.1062 0.86809 76.2003 0.86809C71.2451 0.86809 66.8678 1.93997 63.084 4.09941C59.3022 6.25773 56.3759 9.29731 54.3108 13.208C52.2458 17.1186 51.2207 21.6181 51.2207 26.6927C51.2207 31.7192 52.2461 36.1939 54.3108 40.1039ZM85.5078 37.9266L85.5046 37.9305C83.1913 40.7032 80.1071 42.0943 76.2003 42.0943C73.625 42.0943 71.3804 41.4548 69.4485 40.1884C67.5129 38.9195 65.9939 37.1303 64.8953 34.8021C63.8459 32.4739 63.3142 29.7745 63.3142 26.6927C63.3142 23.6101 63.8462 20.9101 64.8961 18.5814C65.995 16.2043 67.5124 14.4194 69.4413 13.2017L69.4439 13.2001C71.4291 11.9297 73.6764 11.2912 76.2003 11.2912C78.7243 11.2912 80.9447 11.9297 82.8781 13.1971L82.8779 13.1972L82.8899 13.2046C84.8657 14.4221 86.3799 16.2047 87.4281 18.576L87.4279 18.5761L87.4331 18.5871C88.5305 20.9143 89.0864 23.6122 89.0864 26.6927C89.0864 31.416 87.8774 35.1433 85.5078 37.9266ZM111.408 42.388L111.408 42.388L111.412 42.3962C113.184 45.5699 115.667 48.0418 118.855 49.8047C122.046 51.5693 125.73 52.4438 129.894 52.4438C134.058 52.4438 137.743 51.5693 140.934 49.8047C144.123 48.0412 146.583 45.5675 148.305 42.3909C150.076 39.167 150.954 35.4757 150.954 31.3307V1.95704V1.45704H150.454H139.73H139.23V1.95704V30.5209C139.23 34.0704 138.364 36.8417 136.684 38.8876C135.014 40.8728 132.769 41.8734 129.894 41.8734C127.021 41.8734 124.777 40.8739 123.107 38.8907C121.474 36.8448 120.632 34.0722 120.632 30.5209V1.95704V1.45704H120.132H109.334H108.834V1.95704V31.3307C108.834 35.4744 109.688 39.1646 111.408 42.388ZM165.516 51.4719L165.518 51.4725C168.172 52.1205 170.949 52.4438 173.846 52.4438C179.735 52.4438 184.397 51.1026 187.769 48.3561C191.157 45.5974 192.835 41.7403 192.835 36.852C192.835 33.6925 192.155 31.0815 190.751 29.0606C189.38 27.0402 187.721 25.4866 185.772 24.4142C183.871 23.3687 181.482 22.3043 178.61 21.2197C178.609 21.2194 178.608 21.2192 178.608 21.2189L175.594 20.0483C175.591 20.0474 175.589 20.0464 175.587 20.0454C173.632 19.2179 172.258 18.4563 171.429 17.7682C170.673 17.1418 170.278 16.2623 170.278 15.0611C170.278 13.7086 170.834 12.6582 171.985 11.8655L171.985 11.8656L171.995 11.8581C173.16 11.0105 174.841 10.555 177.1 10.555C178.921 10.555 180.847 10.8412 182.88 11.4194L182.882 11.4202C184.965 11.9988 186.9 12.7935 188.687 13.8032L189.308 14.1542L189.426 13.4504L191.053 3.73282L191.12 3.33189L190.741 3.18435C186.154 1.39772 181.656 0.5 177.248 0.5C171.454 0.5 166.863 1.86758 163.54 4.66658C160.207 7.47344 158.554 11.3269 158.554 16.1653C158.554 19.1261 159.159 21.5854 160.41 23.5057L160.416 23.5135C161.683 25.3812 163.188 26.8567 164.931 27.9285L164.931 27.9286L164.94 27.934C166.645 28.932 168.887 29.9974 171.66 31.1309L171.667 31.1338L171.674 31.1365C172.056 31.2792 172.385 31.4197 172.661 31.5574L172.693 31.5732L172.727 31.5844C173.014 31.6796 173.274 31.774 173.51 31.8676C173.511 31.868 173.512 31.8684 173.513 31.8688L175.281 32.6024L175.29 32.6057C177.397 33.4351 178.901 34.201 179.833 34.8969L179.839 34.9018L179.846 34.9065C180.683 35.4894 181.111 36.3334 181.111 37.5146C181.111 38.9485 180.471 40.1003 179.116 40.9998C177.742 41.9116 175.924 42.3887 173.624 42.3887C171.613 42.3887 169.396 42.0314 166.969 41.3071C164.594 40.5347 162.315 39.4728 160.131 38.1202L159.443 37.6936L159.37 38.5005L158.483 48.3653L158.454 48.6837L158.731 48.8433C160.652 49.9508 162.916 50.825 165.516 51.4719ZM200.841 1.45704H200.341V1.95704V50.9867V51.4867H200.841H230.793H231.293V50.9867V41.7108V41.2108H230.793H211.917V30.5056H227.465H227.965V30.0056V21.0241V20.5241H227.465H211.917V11.7329H230.793H231.293V11.2329V1.95704V1.45704H230.793H200.841Z" fill="#F7F3EE" stroke="#F7F3EE"/>
<path fill-rule="evenodd" clip-rule="evenodd" d="M59.934 109.849C57.8268 105.858 56.787 101.303 56.787 96.2082C56.787 91.0664 57.8261 86.4859 59.934 82.494C62.0421 78.5019 65.0346 75.3924 68.9005 73.186C72.7705 70.9774 77.2362 69.8887 82.266 69.8887C87.2467 69.8887 91.6858 70.9775 95.5532 73.1836C99.4186 75.3394 102.412 78.3989 104.522 82.3421C106.631 86.2863 107.671 90.8195 107.671 95.9137C107.671 101.103 106.633 105.731 104.526 109.77L104.524 109.775C102.417 113.765 99.4271 116.897 95.5662 119.152L95.5576 119.157C91.6891 121.364 87.2485 122.454 82.266 122.454C77.2835 122.454 72.8429 121.364 68.9745 119.157C65.1107 116.952 62.0956 113.845 59.9387 109.857L59.934 109.849ZM95.0604 74.0491C91.3626 71.9387 87.0978 70.8835 82.266 70.8835C77.3849 70.8835 73.0954 71.9387 69.3976 74.0491C65.6998 76.1595 62.8401 79.1287 60.8187 82.9569C58.7972 86.785 57.7865 91.2021 57.7865 96.2082C57.7865 101.165 58.7972 105.558 60.8187 109.386C62.8894 113.214 65.7737 116.183 69.4716 118.294C73.1694 120.404 77.4342 121.459 82.266 121.459C87.0978 121.459 91.3626 120.404 95.0604 118.294C98.7583 116.134 101.618 113.14 103.639 109.312C105.661 105.435 106.672 100.969 106.672 95.9137C106.672 90.9567 105.661 86.5887 103.639 82.8097C101.618 79.0306 98.7583 76.1104 95.0604 74.0491ZM91.1918 107.123C93.4668 104.451 94.6527 100.847 94.6527 96.2082C94.6527 93.1869 94.1077 90.5626 93.0464 88.312L93.0412 88.3011L93.0363 88.29C92.024 85.9998 90.5728 84.2993 88.6918 83.1402L88.6799 83.1329L88.6682 83.1252C86.823 81.9156 84.7 81.3015 82.266 81.3015C79.8322 81.3015 77.6801 81.9156 75.7806 83.1312L75.7754 83.1345C73.9388 84.2938 72.4812 85.9993 71.4168 88.3008C70.4011 90.5545 69.8793 93.1829 69.8793 96.2082C69.8793 99.2319 70.4006 101.859 71.4153 104.112C72.479 106.365 73.9398 108.078 75.7898 109.291C77.6319 110.499 79.7786 111.115 82.266 111.115C86.0352 111.115 88.9739 109.781 91.1854 107.131L91.1918 107.123ZM70.5069 104.527C69.4223 102.122 68.8799 99.3492 68.8799 96.2082C68.8799 93.0671 69.4223 90.2942 70.5069 87.8893C71.6409 85.4354 73.2187 83.5704 75.2401 82.2943C77.3109 80.9692 79.6529 80.3066 82.266 80.3066C84.8791 80.3066 87.1964 80.9692 89.2179 82.2943C91.2887 83.5704 92.8664 85.4354 93.9511 87.8893C95.0851 90.2942 95.6521 93.0671 95.6521 96.2082C95.6521 101.018 94.4195 104.871 91.9543 107.766C89.5384 110.662 86.3089 112.11 82.266 112.11C79.6036 112.11 77.2616 111.447 75.2401 110.122C73.2187 108.797 71.6409 106.932 70.5069 104.527ZM113.823 70.4776H145.922V81.7432H126.545V90.9435H142.594V102.135H126.545V121.497H113.823V70.4776ZM125.546 101.141H141.595V91.9383H125.546V80.7483H144.923V71.4725H114.822V120.502H125.546V101.141ZM166.761 121.469V70.5005L167.737 70.4779C169.869 70.4285 173.009 70.404 177.153 70.404C181.34 70.404 184.479 70.4285 186.562 70.4777C191.519 70.529 195.871 71.5369 199.586 73.5384C203.353 75.4917 206.256 78.3029 208.274 81.9583C210.342 85.6138 211.358 89.8594 211.358 94.6622C211.358 99.9163 210.19 104.583 207.822 108.632C205.507 112.676 202.212 115.823 197.961 118.067C193.756 120.313 188.887 121.445 183.384 121.497C181.643 121.546 179.046 121.571 175.599 121.571C172.097 121.571 169.472 121.546 167.732 121.497L166.761 121.469ZM183.365 120.502C188.739 120.453 193.448 119.349 197.49 117.189C201.583 115.03 204.738 112.012 206.957 108.134C209.225 104.257 210.359 99.7664 210.359 94.6622C210.359 89.9997 209.373 85.9262 207.401 82.4416C205.478 78.957 202.717 76.2822 199.118 74.4172C195.568 72.5031 191.377 71.5215 186.545 71.4725C184.474 71.4234 181.343 71.3988 177.153 71.3988C173.011 71.3988 169.88 71.4234 167.76 71.4725V120.502C169.486 120.551 172.099 120.576 175.599 120.576C179.051 120.576 181.639 120.551 183.365 120.502ZM194.935 85.1327L194.928 85.1256C192.755 82.9191 189.548 81.7432 185.14 81.7432H179.483V110.231H183.291C188.066 110.231 191.706 108.85 194.337 106.185C196.971 103.519 198.34 99.8183 198.34 94.9566C198.34 90.5698 197.159 87.3468 194.935 85.1327ZM178.484 111.226V80.7483H185.14C189.725 80.7483 193.226 81.9753 195.642 84.4293C198.107 86.8832 199.339 90.3923 199.339 94.9566C199.339 100.012 197.91 103.987 195.05 106.883C192.19 109.778 188.271 111.226 183.291 111.226H178.484ZM217.463 70.4776H249.414V81.7432H230.037V89.5447H246.086V100.516H230.037V110.231H249.414V121.497H217.463V70.4776ZM229.038 111.226V99.521H245.087V90.5396H229.038V80.7483H248.415V71.4725H218.462V120.502H248.415V111.226H229.038ZM252.716 70.4776H266.677L277.624 105.511L288.501 70.4776H301.648L284.409 121.497H270.032L252.716 70.4776ZM277.627 108.87L265.942 71.4725H254.109L270.749 120.502H283.691L300.257 71.4725H289.238L277.627 108.87ZM306.383 124C304.035 124 301.984 123.125 300.278 121.426C298.613 119.77 297.766 117.751 297.766 115.422C297.766 113.052 298.608 111.007 300.278 109.345C301.984 107.646 304.035 106.771 306.383 106.771C308.772 106.771 310.829 107.64 312.495 109.351C314.16 111.012 315 113.055 315 115.422C315 117.748 314.155 119.765 312.495 121.42C310.829 123.131 308.772 124 306.383 124ZM311.782 120.723C313.261 119.251 314.001 117.484 314.001 115.422C314.001 113.312 313.261 111.521 311.782 110.048C310.303 108.527 308.503 107.766 306.383 107.766C304.312 107.766 302.513 108.527 300.984 110.048C299.505 111.521 298.766 113.312 298.766 115.422C298.766 117.484 299.505 119.251 300.984 120.723C302.513 122.244 304.312 123.005 306.383 123.005C308.503 123.005 310.303 122.244 311.782 120.723Z" fill="#F7F3EE"/>
</svg>
