<svg width="582" height="578" viewBox="0 0 582 578" fill="none" xmlns="http://www.w3.org/2000/svg">
<g opacity="0.5">
<g opacity="0.5">
<path d="M288.001 292.981C284.153 290.417 287.039 284.775 291.272 284.198C295.569 283.75 297.3 289.263 294.35 292.34C292.747 294.071 290.182 294.455 288.001 292.981ZM289.091 291.314C291.4 292.853 293.837 290.93 293.837 288.814C293.901 287.917 293.645 287.211 293.196 286.699C291.015 284.455 286.141 289.327 289.091 291.314Z" fill="white"/>
<path d="M281.845 284.84C283.705 280.865 288.194 277.916 292.298 277.916C297.557 277.916 300.956 282.596 300.827 288.045C302.046 293.686 297.685 298.623 292.939 299.905C284.987 301.7 278.189 293.43 281.845 284.84ZM283.705 285.673C281.139 291.699 284.859 298.174 290.887 298.174C295.248 298.174 300.25 293.622 298.968 288.237C299.032 286.122 298.583 283.942 297.172 282.275C293.26 277.275 285.821 280.993 283.705 285.673Z" fill="white"/>
<path d="M272.546 286.122C275.175 275.096 284.089 268.3 292.362 268.3C299.416 268.3 307.24 272.467 308.587 280.48C309.228 282.724 309.485 285.16 309.421 287.66C311.537 295.289 307.625 304.008 300.571 307.598C286.013 314.842 268.634 302.726 272.546 286.122ZM291.657 307.726C303.136 307.726 310.062 297.276 307.433 288.045L307.369 287.917C307.497 283.942 306.855 281.827 306.599 280.865C305.38 273.621 297.813 269.967 291.4 270.352C283.384 271.057 276.586 277.596 274.47 286.635C271.84 297.725 280.306 307.726 291.657 307.726Z" fill="white"/>
<path d="M265.363 300.289C262.541 290.609 265.171 279.967 272.61 271.121C294.094 248.427 317.758 262.723 316.603 282.596C316.796 284.327 316.86 286.122 316.796 287.852C321.413 302.597 309.613 317.149 295.055 318.431C281.909 319.778 269.019 312.213 265.363 300.289ZM267.223 299.712C272.866 317.79 300.571 323.496 312.178 306.059C315.77 300.674 316.796 294.455 314.808 288.109C314.872 286.314 314.808 284.647 314.615 282.596C315.192 273.877 310.126 265.736 302.495 262.658C285.179 256.055 260.874 277.852 267.223 299.712Z" fill="white"/>
<path d="M260.104 311.252C246.381 278.749 285.179 240.221 310.896 253.107C318.399 257.21 326.159 265.992 323.85 277.275C324.235 280.224 324.427 283.365 324.235 286.635C326.736 301.123 320.259 319.393 304.996 325.099C288.578 330.42 267.223 327.663 260.104 311.252ZM287.552 255.286C252.345 271.057 246.445 325.547 289.412 325.547C294.414 325.547 299.545 324.714 304.29 323.175C318.591 317.855 324.619 300.546 322.247 286.827C322.247 286.827 322.503 282.147 321.798 277.211C323.914 267.659 318.078 259.325 309.934 254.838C302.879 251.312 294.863 252.081 287.552 255.286Z" fill="white"/>
<path d="M250.614 304.906C246.766 270.288 281.46 243.555 299.545 242.722C320.003 241.825 335.394 262.082 330.841 281.827C330.905 283.686 330.905 285.545 330.776 287.34C333.342 298.11 330.648 309.585 323.401 318.881C300.443 348.114 253.243 335.356 250.614 304.906ZM299.609 244.773C282.679 245.479 248.818 271.25 252.602 304.777C254.077 321.509 269.725 332.536 287.36 333.241C311.666 335.356 334.817 312.534 328.788 287.661C328.917 285.738 328.917 283.943 328.853 281.763V281.635C332.38 266.634 323.401 249.325 307.048 245.671C304.547 244.902 302.11 244.645 299.609 244.773Z" fill="white"/>
<path d="M244.329 293.173C248.625 263.428 282.55 227.336 314.808 238.106C328.66 243.042 341.101 260.607 337.51 280.993C337.574 283.109 337.574 285.288 337.446 287.404C339.498 303.623 332.892 319.585 323.016 329.33C294.863 356.383 237.916 337.151 244.329 293.173ZM246.317 293.43C240.16 335.548 294.799 353.69 321.67 327.855C331.097 318.56 337.446 303.495 335.522 287.404C335.714 284.134 335.586 280.672 335.586 280.672C336.291 276.762 336.612 270.608 335.458 265.543C331.866 252.85 324.171 243.491 314.23 239.965C283.512 229.772 250.549 264.453 246.317 293.43Z" fill="white"/>
<path d="M268.377 345.805C253.499 341.574 241.892 329.073 237.467 313.303C230.348 287.917 243.944 260.864 264.979 245.35C273.893 235.477 287.488 229.195 301.661 229.195C325.069 229.195 347.322 247.337 346.231 280.288C346.424 282.916 346.488 285.545 346.36 288.109C347.899 314.008 334.047 333.945 315.064 343.177C300.378 350.036 283.897 350.421 268.377 345.805ZM272.802 240.798C268.826 243.811 266.838 246.311 266.197 246.888C243.303 263.748 230.028 293.686 241.892 319.842C247.343 331.83 257.219 340.613 268.89 343.946C311.152 356.511 346.809 327.919 344.372 288.109C344.436 285.609 344.5 283.365 344.243 280.416C344.179 279.775 344.628 273.813 343.089 266.249C340.845 250.991 329.429 237.977 313.974 232.977C300.956 229.131 285.757 231.31 272.802 240.798Z" fill="white"/>
<path d="M242.918 341.831C237.339 336.831 232.657 330.484 229.515 323.112C226.116 315.098 225.731 310.226 226.052 302.982C227.078 281.763 236.761 262.018 250.934 246.568C252.73 244.645 254.59 242.722 256.513 240.991C258.63 238.491 260.938 236.183 263.375 234.067C274.085 224.772 285.821 219.387 299.801 219.387C322.76 219.387 345.847 233.747 353.093 261.633C356.621 275.416 357.39 299.136 352.452 315.034C347.194 331.958 333.085 345.293 317.758 352.344C310.383 355.87 302.559 357.858 294.735 358.499C276.266 360.101 257.219 353.434 242.918 341.831ZM229.515 317.086C231.631 324.137 235.286 330.74 240.289 336.318C250.87 348.177 275.881 360.678 302.238 355.357C320.644 351.639 337.061 339.459 345.398 325.997C348.797 320.547 350.913 314.393 352.196 308.175C353.671 300.802 354.376 289.391 353.799 282.404C353.607 273.429 352.324 264.133 349.182 255.671C338.6 224.836 299.032 210.989 272.161 230.029C266.774 233.362 262.093 237.529 258.053 242.273C257.411 242.914 255.68 244.389 252.473 247.914C238.685 262.979 229.13 282.212 228.104 303.11C227.719 310.226 228.232 312.919 229.515 317.086Z" fill="white"/>
<path d="M237.082 348.69C224.705 337.536 218.933 325.484 217.586 311.508C217.586 311.444 217.586 311.444 217.586 311.38C218.356 282.468 233.042 250.35 258.501 229.323C264.658 222.207 272.482 216.566 281.524 212.912C310.319 200.219 345.013 216.951 356.236 245.927C359.827 254.774 360.725 264.326 361.559 273.878C362.649 286.122 362.777 284.199 363.354 290.93C363.996 295.097 363.996 299.713 364.252 303.687C364.38 312.47 363.162 321.188 359.057 328.881C351.041 346.382 334.111 361.319 311.601 366.961C285.757 373.179 257.796 367.345 237.082 348.69ZM220.729 318.496C222.332 325.676 225.41 332.343 229.963 338.113C260.04 377.795 327.249 377.538 353.735 334.843C366.368 314.521 362.072 301.123 359.635 274.134C358.737 264.518 357.903 255.287 354.44 246.696C343.602 218.682 310.062 202.527 282.294 214.771C273.572 218.233 266.005 223.682 259.912 230.67C259.912 230.67 256.129 233.811 252.858 236.824C226.5 263.3 216.624 300.354 220.729 318.496Z" fill="white"/>
<path d="M204.76 306.38C209.506 277.916 220.601 253.107 234.966 234.644C238.749 230.028 248.305 221.118 252.858 217.335C286.398 182.782 340.011 194.321 361.815 233.17C368.036 244.26 371.435 260.287 371.884 263.685C372.653 273.429 374.77 284.135 375.731 293.366C383.363 326.445 364.316 360.87 327.57 374.846C264.081 398.886 200.079 350.293 204.76 306.38ZM206.748 306.636C206.62 309.393 206.684 312.149 206.813 314.97C211.109 355.614 269.019 394.847 326.864 372.987C345.141 366.063 360.661 353.049 369.19 335.548C375.539 321.445 376.693 306.572 373.743 293.751C373.743 293.751 373.359 290.097 372.782 286.058C371.82 278.686 370.537 271.506 369.896 263.877C369.062 259.069 367.908 254.325 366.433 249.709C353.735 201.565 291.913 179.897 254.269 218.746C254.269 218.746 251.96 220.669 249.908 222.464C241.828 230.477 239.198 231.567 232.016 242.016C219.51 260.351 210.789 282.66 206.748 306.636Z" fill="white"/>
<path d="M194.756 307.213C194.756 305.61 197.963 275.095 221.947 243.362C228.617 233.49 237.788 226.438 246.06 217.335C248.497 214.514 250.614 211.117 253.179 208.36C264.786 195.282 281.909 187.782 300.25 187.782C315.257 187.782 327.891 192.654 340.652 201.052C363.419 216.053 377.72 241.76 380.798 267.082C381.696 271.633 382.337 276.377 382.85 281.121C383.812 286.058 384.517 290.609 385.03 294.968C396.638 333.817 364.316 382.09 307.369 389.077C253.756 398.244 195.205 358.049 194.756 307.213ZM196.68 307.213C196.68 309.905 196.873 312.662 197.193 315.354C203.542 357.344 247.471 388.372 291.785 388.372C300.763 388.372 311.922 386.577 318.014 385.167C368.228 373.692 393.175 329.394 383.042 295.417L382.978 295.225C382.081 287.724 380.862 281.891 380.734 281.25C379.964 273.428 378.81 267.851 378.682 267.21C376.245 247.081 366.369 225.925 350.144 211.053C317.373 180.538 276.266 185.089 254.526 209.578C252.024 212.271 249.972 215.604 247.407 218.553C236.184 230.862 230.862 232.849 218.42 251.504C206.684 269.197 199.181 288.494 196.68 307.213Z" fill="white"/>
<path d="M188.279 307.213C188.279 307.085 188.279 307.149 188.279 307.021C190.972 284.84 203.606 264.326 215.149 245.478C225.154 226.759 241.058 212.656 256.513 199.834C285.757 177.653 322.119 178.807 346.039 197.527C360.468 207.72 372.14 223.746 378.425 240.414C384.774 255.864 387.916 273.685 388.429 282.276C389.584 287.533 390.417 292.341 391.123 296.892C395.997 313.368 394.137 333.112 384.261 350.934C366.433 379.975 335.394 392.411 301.469 394.078C247.92 400.232 190.972 361.063 188.279 307.213ZM190.267 307.213C190.395 309.97 190.716 312.662 191.101 315.355C198.476 361.768 250.165 397.989 301.34 392.027C301.982 391.963 306.856 391.834 313.589 390.873C330.584 388.501 347.386 383.244 361.302 372.987C372.461 364.717 382.016 353.627 387.147 340.036C392.469 325.868 393.239 310.739 389.199 297.341V297.213C388.173 289.904 386.505 282.468 386.505 282.468C386.121 275.545 383.812 263.364 381.567 255.543C375.86 235.093 365.92 216.374 349.566 202.719C341.871 196.437 336.291 193.231 331.161 191.052C306.663 180.474 279.28 185.09 257.732 201.437C227.462 226.567 223.743 235.029 212.392 253.812C202.965 269.454 192.64 287.789 190.267 307.213Z" fill="white"/>
<path d="M239.968 393.18C205.017 377.41 179.557 340.869 179.236 304.136C179.236 304.072 179.236 304.072 179.236 304.008C182.507 281.827 193.794 261.441 206.171 242.465C218.612 222.143 237.338 205.732 253.948 191.308L254.012 191.244C279.087 173.999 312.114 168.934 339.818 184.064C364.06 197.334 387.211 227.079 394.65 268.556C395.419 272.788 395.996 276.89 396.509 280.416C398.113 287.404 399.203 293.174 400.037 298.43C406.065 320.868 401.704 344.715 389.712 363.37C385.8 368.755 376.18 377.859 365.214 384.718C345.59 396.962 320.323 402.219 298.39 402.989C277.933 403.63 258.117 401.258 239.968 393.18ZM181.289 304.2C181.289 306.572 181.417 309.008 181.673 311.444C185.265 347.472 213.161 384.141 253.499 396.065C267.736 400.296 284.089 401.45 298.326 400.937C332.636 399.655 366.24 388.821 388.108 362.152C399.973 343.754 404.013 320.419 398.177 298.815V298.687C396.83 289.712 394.778 281.378 394.65 280.609C392.533 265.736 389.84 249.004 379.772 229.387C366.304 204.578 344.949 182.653 317.373 178.038C296.146 174.384 273.636 180.217 255.295 192.782C221.819 222.015 215.406 231.246 203.414 250.607C190.459 271.441 183.661 287.981 181.289 304.2Z" fill="white"/>
<path d="M273.123 413.887C235.222 413.759 203.414 390.873 184.239 358.371C172.952 339.651 163.589 317.727 166.154 295.93C169.425 276.378 182.251 260.992 194.435 246.055C205.53 232.529 214.38 218.618 248.818 186.115C252.473 183.038 256.321 180.025 260.682 176.948C274.726 168.23 291.015 163.806 306.984 163.806C337.189 163.806 358.737 177.589 377.014 200.475C390.802 217.784 402.281 241.632 407.348 267.98C409.849 281.058 411.708 286.058 413.889 299.649C419.276 323.112 416.133 349.588 401.576 369.012C398.562 373.051 394.842 376.833 394.137 377.474C364.444 399.399 328.147 412.669 289.476 414.015C283.897 414.272 278.446 414.208 273.123 413.887ZM255.487 183.295C244.264 192.013 217.971 218.361 201.169 240.927C186.034 259.774 167.629 279.134 167.629 303.239C167.565 338.69 205.337 411.707 273.187 411.964C314.102 414.528 357.326 402.284 392.854 376.064C401.576 367.41 407.54 357.537 411.131 344.908C418.699 318.111 411.003 297.661 405.616 269.711C399.908 240.35 386.249 210.797 364.893 190.218C336.548 160.024 288.258 157.973 255.487 183.295Z" fill="white"/>
<path d="M258.117 421.003C194.692 414.72 152.687 344.203 157.369 283.878V283.75C165.257 264.902 179.622 250.094 192.961 234.003C209.314 214.771 226.244 194.962 245.099 178.102C286.206 145.728 337.638 150.408 366.433 178.166C383.94 193.487 397.28 214.13 406.899 235.541C412.543 249.004 417.545 270.352 419.469 283.622C424.407 306.572 427.613 324.329 421.905 346.831C418.507 362.922 409.528 376.641 397.344 387.603C396.125 388.565 378.938 400.809 353.671 409.976C323.979 419.977 289.413 425.105 258.117 421.003ZM159.292 284.199C154.867 342.792 196.039 412.861 258.309 419.015C265.171 419.913 272.675 420.426 280.691 420.426C319.81 420.426 362.457 409.463 396.061 386.128C412.542 371.256 419.533 355.229 422.162 334.843C424.599 315.675 421.264 304.456 417.545 283.878C415.749 271.377 412.35 258.428 408.887 246.183C401.384 224.259 385.159 197.206 365.086 179.64C339.178 154.703 299.545 151.818 267.031 166.498C244.201 177.781 230.028 193.616 186.933 244.132C176.479 256.44 165.641 269.198 159.292 284.199Z" fill="white"/>
<path d="M244.457 432.414C183.405 418.182 149.095 350.357 143.708 289.648C144.414 283.686 145.568 278.045 147.364 272.403C147.556 271.891 148.839 269.198 150.186 266.698C154.033 259.774 152.174 263.236 175.517 234.516C190.203 216.438 220.472 185.475 237.274 168.871C237.916 168.294 241.571 165.473 244.008 163.678C253.114 157.011 262.606 152.267 272.674 148.677C304.932 135.279 346.873 140.279 373.615 165.794C394.457 183.808 410.49 208.361 422.162 233.555C424.599 239.388 433.32 269.839 436.078 300.098C439.349 316.701 438.835 333.882 435.052 349.46C432.038 362.41 425.945 375.167 415.813 387.347C408.181 395.809 400.614 404.592 390.353 408.759C374.321 417.221 357.647 423.952 339.434 428.824C309.164 437.158 274.726 439.402 244.457 432.414ZM145.761 289.712C151.212 349.588 183.982 416.323 244.906 430.491C291.657 441.261 345.654 430.235 389.455 407.028C399.139 402.54 404.013 397.54 413.183 387.347C434.218 363.948 439.99 330.164 434.154 300.418C434.09 299.777 433.705 294.264 432.102 283.75C428.639 261.377 423.444 242.337 420.43 234.26C410.298 212.399 398.113 193.68 384.261 178.743C368.356 161.563 353.35 150.28 330.584 145.6C305.316 140.472 286.655 144.318 265.684 153.485C254.974 158.165 248.176 162.588 238.685 170.217C190.523 217.849 178.595 234.068 155.124 262.467C152.943 265.865 150.955 269.326 149.352 272.98C147.556 278.494 146.402 284.071 145.761 289.712Z" fill="white"/>
<path d="M264.401 440.171C235.479 437.415 212.199 429.273 190.074 407.156C158.779 376 144.093 330.356 138.45 286.956C138.45 286.828 138.45 286.892 138.45 286.763C138.706 279.455 139.604 272.788 139.796 272.147C142.554 262.211 148.197 256.89 152.751 252.018C164.422 239.388 158.202 246.697 169.296 233.042C170.899 231.055 172.182 229.516 173.401 228.17C174.876 226.247 176.158 224.58 177.505 222.913C177.505 222.913 211.494 189.513 234.901 163.935C235.543 163.358 239.711 160.152 241.892 158.55C245.162 156.178 252.73 150.408 266.838 145.023C285.051 136.689 306.407 134.638 326.8 139.382C346.937 142.844 366.368 151.69 381.311 165.986C401.191 184.321 416.454 208.81 428.574 232.978C428.895 233.619 431.524 240.03 433.833 247.594C437.104 259.005 439.092 270.801 440.31 282.596C441.08 288.302 443.26 307.726 443.517 312.855C446.659 370.102 416.903 413.374 347.45 432.478C321.092 439.402 291.849 442.799 264.401 440.171ZM140.373 286.828C146.081 330.933 159.677 366.897 180.711 393.694C207.903 428.183 240.352 439.081 283.576 439.081C316.283 439.081 354.504 431.901 385.03 415.618C417.416 398.822 436.398 371.641 440.695 335.933C442.106 324.138 441.914 312.022 440.118 300.098C437.809 280.032 437.04 258.685 426.715 233.875C415.364 211.246 403.756 193.36 391.251 179.192C375.411 161.178 358.673 148.998 333.79 142.972C308.972 136.946 290.951 137.074 267.479 146.946C253.563 152.203 246.124 157.909 242.918 160.217C230.348 169.384 244.136 159.383 178.916 224.259C176.864 226.759 174.811 229.516 174.811 229.516C172.567 232.016 170.386 234.773 168.27 237.401C153.584 255.8 145.44 259.198 141.656 272.66C141.015 277.34 140.566 282.084 140.373 286.828Z" fill="white"/>
<path d="M185.393 418.182C179.108 411.9 176.222 406.771 173.657 402.668C150.442 365.679 120.621 318.624 131.588 271.506C132.037 270.288 141.4 251.633 155.508 233.362C157.304 231.054 159.1 228.746 161.152 226.31C162.114 224.836 163.204 223.297 164.422 221.759C166.026 219.707 167.821 217.592 168.078 217.335C187.317 200.283 207.069 183.038 222.204 161.819C225.218 158.165 234.004 151.369 238.429 148.228C239.07 147.779 246.958 143.036 256.834 139.125C279.472 127.329 306.663 124.893 332.187 132.586C353.157 136.945 371.178 146.241 384.71 158.229C407.604 178.551 424.855 206.181 438.322 233.747C438.579 234.388 440.823 239.965 442.683 246.312C446.21 257.402 448.84 269.134 450.186 281.25C451.277 289.648 452.88 308.111 452.944 316.637C453.136 338.241 448.647 360.358 438.194 379.013C425.56 401.578 408.309 414.592 383.042 427.029C358.288 438.76 337.702 444.466 316.603 447.479C250.485 456.774 205.594 438.44 185.393 418.182ZM133.447 272.083C132.357 276.762 131.588 281.57 131.139 286.378C129.792 330.612 154.675 368.692 178.21 406.194C188.279 421.452 203.542 431.004 220.665 437.542C254.205 450.428 295.825 449.979 331.161 442.799C346.616 439.466 361.623 434.273 376.052 427.862C398.369 417.926 419.981 404.463 432.807 383.949C448.84 359.653 453.265 328.433 449.866 299.52C448.711 277.468 444.671 255.158 436.463 234.516C400.678 161.434 365.214 141.433 331.674 134.509C329.75 133.996 318.271 130.15 302.238 130.15C286.526 130.15 271.135 133.868 257.604 140.92C252.922 143.036 238.557 147.779 223.679 163.037C208.416 184.384 188.599 201.693 169.36 218.746C166.988 221.502 164.743 224.323 162.691 227.464C161.601 228.939 151.019 241.119 141.656 257.146C138.578 262.338 135.82 267.21 133.447 272.083Z" fill="white"/>
<path d="M202.708 437.606C189.754 429.401 179.3 420.041 174.811 414.72C145.183 376.961 124.469 329.522 122.16 282.981C122.096 282.019 123.315 271.441 124.469 266.633C125.944 261.377 128.509 256.505 129.279 255.415C136.718 246.696 144.606 237.208 152.109 228.105C154.61 224.836 162.37 214.322 164.358 212.207C188.214 190.667 204.119 175.153 219.959 150.472C221.434 148.677 234.068 137.971 259.207 130.15C282.55 120.47 307.176 119.06 329.109 125.021C350.464 125.791 369.767 135.984 384.966 150.6C408.63 171.819 427.035 200.668 443.068 227.4C447.621 236.183 453.072 258.107 455.188 268.108C457.561 279.391 458.523 286.058 459.036 299.136C462.179 330.227 456.535 363.884 438.386 389.654C422.29 412.925 400.036 425.106 377.655 435.427C359.891 443.632 335.714 451.197 314.423 454.274C277.612 459.595 234.068 456.069 202.708 437.606ZM176.286 413.438C183.597 421.451 192.832 429.016 203.67 435.876C249.459 462.864 321.22 459.21 376.821 433.568C400.998 422.413 431.268 406.835 447.365 369.525C456.599 348.049 459.421 322.983 457.048 299.264C456.535 286.122 455.509 279.519 453.2 268.557C448.904 248.171 444.799 236.631 441.336 228.426C417.544 188.872 382.272 133.996 336.548 127.714C332.764 127.201 328.724 127.009 328.724 127.009C307.24 121.175 282.999 122.457 259.912 132.073C257.796 132.842 248.689 135.214 236.697 141.625C231.951 143.997 225.41 148.1 221.562 151.754C205.658 176.499 190.01 191.885 165.769 213.745C155.765 225.797 161.793 220.477 130.818 256.761C127.419 262.595 125.239 268.3 124.084 283.045C126.008 321.445 140.822 362.73 165.897 399.335C169.232 404.079 172.695 408.887 176.286 413.438Z" fill="white"/>
<path d="M164.615 418.887C164.166 418.246 158.138 408.566 156.727 406.322C132.485 367.153 110.361 324.714 112.284 279.455V279.391C115.619 249.709 123.443 247.081 143.067 224.515C151.404 212.207 161.536 202.078 162.178 201.565C184.559 187.013 201.361 163.87 214.187 140.471C224.063 130.919 240.737 122.65 254.846 118.995C279.728 105.854 308.972 109.251 336.035 116.88C341.422 117.136 347.065 117.329 352.452 117.329C365.47 117.329 379.258 124.765 390.225 137.779C399.524 148.613 395.227 148.356 422.29 179.064C445.12 204.963 461.537 225.221 464.167 265.159C465.257 282.147 462.564 275.352 465.898 299.713C475.005 332.022 467.437 367.922 449.16 395.168C421.905 436.645 356.428 461.647 307.24 466.775C255.744 472.16 196.808 459.723 164.615 418.887ZM166.218 417.669C170.707 423.311 175.837 428.632 181.545 433.375C226.885 471.327 310.832 478.955 388.942 441.068C422.931 424.593 447.814 403.63 460.832 367.666C467.181 350.229 469.041 332.343 467.117 315.868C466.091 306.828 464.103 300.61 463.974 299.969C460.576 275.288 463.333 282.147 462.243 265.223C459.614 225.477 443.132 205.54 420.879 180.282C393.688 149.446 397.984 149.703 388.814 138.933C378.232 126.368 365.022 119.188 352.516 119.188C345.398 119.188 336.291 118.803 335.65 118.675C308.972 111.11 280.113 107.713 255.744 120.662C255.744 120.662 251.639 121.752 247.856 123.098C237.146 126.817 223.935 133.868 215.855 141.561C202.836 165.217 186.034 188.295 163.396 203.04C157.625 208.809 150.442 217.079 144.734 225.541C144.734 225.541 134.153 237.208 124.149 248.876C121.07 253.428 118.826 258.043 117.479 262.595C104.845 310.419 132.614 363.499 158.394 405.233C161.152 409.72 163.909 414.079 166.218 417.669Z" fill="white"/>
<path d="M214.893 462.544C190.908 453.825 165.705 433.632 154.996 417.989C129.408 376.576 92.9175 318.944 104.91 264.902C106.577 256.697 110.361 249.196 111.772 247.017C140.374 209.835 138.193 211.309 147.3 202.206C159.356 190.09 154.996 194.898 164.807 188.487C181.866 177.525 193.474 162.395 201.875 144.51C206.236 135.278 202.388 142.202 208.544 130.919C209.506 128.996 211.815 127.201 213.739 126.239C215.599 124.701 217.587 123.162 219.703 121.624C230.541 113.867 241.828 108.61 255.039 106.751C282.55 100.981 309.549 100.917 333.726 106.623C338.151 106.494 341.807 105.725 342.448 105.661C361.815 105.212 379.002 108.802 390.866 124.124C399.716 136.176 408.951 147.138 418.506 158.549C448.84 194.577 471.221 222.015 474.107 262.979C475.262 279.198 472.632 273.3 475.775 297.853C487.895 337.343 471.414 381.577 441.593 412.22C436.399 418.566 429.409 422.605 423.765 428.247C423.124 428.824 411.965 437.67 397.087 446.389C365.663 463.377 331.61 472.865 300.186 475.173C269.276 477.416 239.583 472.416 214.893 462.544ZM215.599 460.749C240.289 470.557 269.66 475.429 299.994 473.25C330.905 471.006 364.637 461.71 396.061 444.722C416.775 432.67 425.304 424.015 430.05 420.169C437.104 414.528 437.681 413.566 440.118 410.874C446.018 404.783 451.085 398.693 455.381 392.667C474.107 365.422 483.663 330.227 473.851 298.43C473.723 297.789 472.504 288.173 472.119 279.647C472.055 278.749 473.787 265.351 469.875 247.145C459.999 201.052 421.392 169.255 389.327 125.406C380.798 114.379 368.741 108.802 351.426 107.841C339.37 107.135 341.935 108.482 333.662 108.674C332.059 108.738 301.661 98.9938 255.423 108.738H255.359C232.785 111.879 218.292 125.598 214.701 127.97C212.905 128.868 211.109 130.278 210.147 132.073C203.927 143.484 208.159 135.791 203.606 145.407C194.949 163.87 183.02 179.191 165.834 190.218C157.753 195.475 159.1 193.359 154.226 198.231C139.668 212.912 150.827 199.513 113.311 248.299C110.169 253.812 107.988 259.581 106.77 265.479C96.2523 312.918 123.828 363.819 149.031 404.783C151.019 408.053 153.072 411.322 155.06 414.592C164.936 430.426 190.716 451.646 215.599 460.749Z" fill="white"/>
<path d="M240.609 483.891C211.045 476.006 178.659 459.915 154.354 438.055C142.49 426.964 133.64 414.977 127.612 402.476C111.643 366.768 82.7206 320.932 86.6967 280.288C92.0836 239.196 109.848 227.592 125.752 207.976C131.844 201.308 135.179 192.141 142.811 186.179C161.408 170.729 183.661 153.933 193.153 127.265C195.077 122.649 198.732 120.79 204.632 115.79C219.895 104.379 236.569 95.9168 255.487 92.5191C282.935 83.0313 311.729 90.1472 339.562 94.4423C354.825 94.7629 364.637 94.3141 366.048 94.3141C377.271 94.3141 387.852 98.6734 395.035 106.302C412.927 125.47 424.599 147.907 441.978 167.781C455.83 183.166 470.323 203.616 479.302 222.977C487.639 241.439 491.871 259.517 491.23 279.968C492.384 304.777 494.308 300.097 495.27 315.29C497.322 348.946 482.829 383.628 463.461 407.476L463.397 407.54C429.024 443.44 389.519 469.724 340.139 483.571C304.098 492.93 271.392 492.161 240.609 483.891ZM88.6847 280.48C86.5043 314.008 102.152 345.613 117.223 376.128C121.455 384.718 125.624 393.116 129.407 401.642C135.307 413.823 143.965 425.682 155.701 436.645C181.802 460.172 220.921 479.789 260.938 486.263C301.533 492.546 338.792 484.468 375.282 468.762C425.496 445.043 458.331 411.579 466.283 400.168C480.135 381.128 490.589 356.768 492.897 332.663C494.116 319.97 493.218 308.431 490.524 297.789C490.396 297.148 489.562 287.34 489.178 279.839C489.114 278.878 489.947 267.659 486.869 251.953C480.456 221.438 460.832 191.564 440.439 168.934C422.931 148.997 411.26 126.496 393.495 107.52C386.634 100.34 376.629 96.1732 365.919 96.1732C365.919 96.1732 357.839 96.4297 350.143 96.4297C337.895 96.4297 340.075 96.4938 327.441 94.3782C303.328 90.3395 279.087 86.3008 255.872 94.3141C255.808 94.3141 251.639 95.0834 247.086 96.3015C228.937 101.238 213.674 110.661 199.566 122.265C197.834 123.675 195.91 125.47 194.884 127.906C186.227 152.203 166.795 169.127 149.224 183.102C141.079 190.282 140.63 189.385 133.768 200.026C130.369 205.283 129.407 206.693 123.251 213.745C120.75 216.63 106.064 232.593 103.05 237.913C98.2401 245.286 95.0977 252.658 92.5966 261.312C90.9293 267.531 89.5184 273.941 88.6847 280.48Z" fill="white"/>
<path d="M236.312 491.776C196.936 479.66 160.703 455.235 137.616 428.695C127.419 416.964 117.03 400.873 109.335 387.859C93.2379 359.652 81.8869 327.406 75.6021 295.417C75.538 294.776 75.2174 287.276 75.8587 278.749C77.2695 267.467 80.3478 255.286 82.913 248.363C84.2597 244.773 85.863 241.183 87.6586 237.785C91.314 229.323 97.4705 222.72 103.499 216.309C108.052 211.501 112.541 206.693 116.004 201.052C121.519 193.038 127.355 185.346 133.961 178.358C138.257 174.127 142.682 170.345 146.402 167.588C148.198 166.37 149.48 164.639 151.725 163.742C172.118 156.626 174.17 138.74 183.982 122.2C189.69 112.52 194.5 108.738 203.606 101.943C219.125 90.4034 236.248 81.8772 255.68 79.954C298.968 75.5307 324.94 80.9797 340.845 82.1978C363.483 82.5824 377.335 81.8131 376.693 81.8131C382.273 81.8131 393.56 85.7877 400.422 93.4165C426.715 124.444 472.632 183.166 489.755 216.886C494.885 227.464 497.643 234.451 500.4 245.734C504.761 264.325 504.377 275.544 504.89 294.584C509.892 324.586 503.479 360.806 483.791 393.308C481.354 397.475 478.66 401.514 475.774 405.553C475.261 406.194 461.217 422.22 440.439 439.657C428.126 449.915 430.563 447.35 400.806 468.762C400.678 468.89 397.664 470.493 397.472 470.621C381.824 479.276 369.896 485.879 345.141 492.994C311.922 501.713 271.584 502.739 236.312 491.776ZM77.5902 295.097C81.1173 312.918 86.1195 330.419 92.4684 347.151C97.4064 360.165 103.755 377.153 121.84 403.886C149.865 449.338 201.169 482.289 251.191 493.7C276.137 499.405 316.347 500.303 352.645 488.507C371.563 482.353 380.221 477.737 396.51 468.762C400.999 466.262 396.83 468.954 414.723 456.325C423.252 450.299 446.916 434.721 474.171 404.335C496.937 373.05 509.122 332.15 502.902 294.84C502.517 290.93 502.966 274.326 501.17 260.992C498.092 238.17 491.551 222.848 479.815 202.847C456.022 166.242 429.537 130.855 398.947 94.7627C395.483 90.9163 390.994 87.9674 385.607 85.9801C377.335 82.6465 379.515 84.3133 353.735 84.3133C340.78 84.3133 340.011 84.121 332.957 83.6081C331.097 83.4158 313.204 80.2746 288.45 80.2746C277.548 80.2746 258.373 81.1079 248.112 83.0953C230.22 86.6211 213.161 96.2372 199.245 107.905C196.936 109.7 191.678 113.161 185.778 123.162C177.377 137.394 172.695 159.639 152.558 165.601C151.404 166.05 150.506 166.819 149.608 167.652C147.556 169.447 147.428 169.255 143.516 172.524C126.906 186.371 119.082 201.244 113.182 208.552C102.409 221.822 93.3021 226.31 84.901 249.004C82.3999 255.799 79.3217 267.915 77.975 278.878C77.4619 284.262 77.3978 289.776 77.5902 295.097Z" fill="white"/>
<path d="M238.044 505.303C195.013 491.328 150.506 458.762 123.123 426.965C92.9814 392.667 72.8445 346.959 65.9185 305.931C64.7 298.879 63.9946 292.468 63.9946 291.827C63.738 276.057 65.9185 259.902 71.8184 245.093C74.2554 239.003 76.2434 235.542 78.0391 232.208C82.3999 224.066 84.2597 220.989 94.5847 211.501C106.449 200.539 104.781 200.732 112.605 187.59C122.481 172.268 120.878 174.32 133.576 164.191C136.718 161.69 138.45 160.216 138.45 160.216C154.546 148.549 163.525 131.368 176.543 116.239C186.868 103.161 200.207 95.8528 223.615 76.6848C233.17 69.2484 244.521 70.0177 256.449 70.9793C270.43 72.0691 300.443 68.6074 331.225 70.0818C342.063 70.1459 332.764 70.4024 372.91 68.6074C383.235 68.1586 408.758 77.967 422.803 99.3786C458.972 155.023 508.994 197.334 516.69 262.082C517.844 271.954 517.78 278.621 517.587 295.033C520.345 329.522 514.06 364.973 496.809 395.873C484.56 417.413 468.913 433.311 448.263 449.338C412.991 476.84 390.545 495.495 345.847 505.816C317.822 510.752 288.963 507.867 260.874 509.598C260.169 509.534 250.1 508.829 238.044 505.303ZM67.8424 305.61C69.3815 314.649 71.3054 323.24 74.576 334.01C84.4521 366.704 101.318 399.142 124.598 425.618C155.316 461.262 214.957 503.893 260.746 507.483C288.835 505.688 317.629 508.573 345.334 503.7C372.717 497.354 397.407 486.071 421.52 467.031C472.953 429.401 502.196 403.309 513.675 340.292C515.856 326.894 516.625 309.841 515.471 294.969C515.279 292.661 516.305 276.762 514.573 262.146C509.122 216.374 481.995 181.564 454.676 146.433C443.453 132.009 431.909 117.136 420.943 100.34C416.454 93.4808 410.682 87.5189 403.82 82.6468C395.932 77.0695 382.786 70.4665 372.781 70.4665C363.162 70.9152 355.21 71.2999 347.129 71.6204C320.323 72.8384 333.726 70.2741 278.959 72.6461C260.233 73.4795 262.926 73.4154 256.064 72.9025C244.778 72.005 233.683 71.1075 224.641 78.1593C201.297 97.3272 188.022 104.571 177.89 117.457C165.064 132.33 155.765 149.959 139.476 161.755C137.231 163.678 134.858 165.537 132.55 167.396C122.353 175.473 123.315 174.384 114.144 188.615C106.256 201.757 107.86 201.757 95.8031 212.976C85.6064 222.4 83.8749 225.284 79.7065 233.17C77.2695 237.721 68.8684 251.504 66.4956 276.057C65.3413 288.686 65.9826 294.456 67.8424 305.61Z" fill="white"/>
<path d="M260.938 517.547C256.449 516.97 251.96 516.201 247.599 515.175C207.326 503.764 168.078 480.045 127.548 442.606C123.7 438.824 119.98 434.913 116.389 431.003C85.6066 397.731 64.8925 350.421 57.7741 308.559C56.5556 301.315 55.786 294.648 55.7219 294.007C55.2089 274.71 58.0947 255.094 66.4316 237.528C71.4338 227.015 70.7925 229.451 98.7532 192.91C108.309 180.473 111.579 175.088 117.351 169.191C120.686 166.049 129.728 159.831 134.538 156.113C150.955 144.061 160.382 126.816 172.503 109.699C178.018 101.686 185.586 97.0062 192.512 91.8777C205.273 82.3899 220.665 72.9662 236.826 64.9528C243.559 61.7475 250.934 62.1321 258.309 62.5168C267.608 63.0296 264.53 62.645 280.113 62.645C299.352 62.645 309.613 63.7348 334.047 62.1321C355.21 60.9141 375.539 55.9779 394.137 66.1067C421.713 76.4279 426.587 93.0957 443.709 114.572C509.251 203.744 528.682 221.694 525.989 293.942C526.437 301.635 526.502 310.226 525.732 320.995C522.91 358.177 513.547 381.32 499.952 404.27C497.322 408.694 494.821 412.54 494.244 413.181C474.941 433.182 457.498 449.85 434.475 469.339C387.724 509.79 361.687 513.316 332.828 516.201C308.972 518.38 284.731 519.022 260.938 517.547ZM66.624 337.15C80.6044 382.73 101.767 414.335 128.894 441.132C169.168 478.314 208.159 501.905 248.048 513.252C252.409 514.278 256.77 515.047 261.131 515.56C284.923 517.034 309.1 516.393 332.572 514.085C360.853 511.265 386.634 507.995 433.128 467.736C456.471 447.991 474.107 431.067 492.705 411.707C514.317 380.743 523.552 346.382 524.257 308.366C524.321 303.302 524.193 298.045 523.936 293.814C524.129 288.173 524.321 281.698 524.385 275.544C524.193 264.71 522.846 253.683 520.281 242.657C517.267 230.092 514.445 223.233 508.673 211.629C499.182 193.359 492.897 184.448 450.892 127.649C422.482 89.2493 420.943 84.6336 410.49 76.9408C402.217 70.8506 394.137 68.1582 393.175 67.7735C380.605 60.9782 365.791 60.9782 351.49 62.645C314.231 66.4914 299.93 64.1194 265.428 64.6964C255.68 64.6964 245.996 62.7091 237.595 66.6837C221.434 74.6971 206.171 84.1208 193.602 93.4163C186.804 98.4807 179.301 103.032 174.042 110.789C156.022 136.24 153.328 144.958 129.151 162.523C117.992 170.665 117.351 170.857 105.743 186.948C73.8707 229.002 73.7425 226.63 68.1632 238.298C62.5838 250.029 59.1849 263.492 58.0306 278.172C57.5817 284.391 55.7219 301.379 66.624 337.15Z" fill="white"/>
<path d="M258.822 529.984C251.768 529.856 244.713 528.574 243.302 528.189C197.962 510.752 159.292 479.404 121.263 448.44C113.054 441.773 109.078 438.568 109.078 438.568C77.6542 409.079 63.9303 362.153 49.6934 319.329C48.4108 314.521 45.525 297.084 45.8456 278.429C46.2304 257.787 50.5912 236.824 61.8782 219.451C70.8564 203.232 86.1835 193.872 96.4443 179.833C102.537 171.435 101.126 171.178 107.026 163.421C113.503 154.895 116.581 155.023 128.253 145.472C145.119 131.817 154.61 112.008 170.066 96.1093C173.849 91.8783 178.852 88.5447 183.405 85.2111C215.791 60.4018 246.637 50.6576 264.401 50.337C275.303 50.1447 291.592 51.4268 300.186 51.6192C313.268 51.8756 309.677 52.4526 325.71 51.8115C337.446 50.9781 348.155 50.1447 359.699 48.4779C376.629 45.8495 401.383 57.3247 406.963 61.2993C435.116 81.3006 449.289 101.558 471.157 133.099C504.248 180.73 486.676 151.562 517.587 199.129C517.972 199.77 520.665 204.77 523.038 210.091C531.824 230.157 536.185 252.338 536.313 274.326C536.185 279.647 535.993 285.353 535.736 291.763C536.121 295.674 536.185 299.713 535.993 304.841C535.993 343.882 527.207 382.09 505.146 415.169C504.697 415.81 491.55 431.58 478.147 445.107C468.72 455.043 458.459 464.531 447.557 473.506C416.967 497.546 385.8 522.163 346.488 526.907C329.75 530.561 313.012 528.766 296.21 528.766C279.792 528.766 273.828 528.51 266.261 529.6C263.568 529.792 261.323 529.984 258.822 529.984ZM243.944 526.33C248.882 527.356 253.884 527.933 258.886 528.061C268.121 528.061 265.556 526.587 286.654 526.779C294.863 526.843 290.438 526.779 296.21 526.779C304.547 526.779 312.948 527.228 321.221 527.228C336.932 527.228 343.281 525.433 346.167 524.984C384.709 520.368 415.62 496.136 445.441 472.609C448.262 470.365 453.649 465.749 456.728 462.993C469.81 451.325 487.125 433.696 503.479 414.015C525.219 381.385 534.004 343.69 533.94 304.841C534.069 300.354 534.069 296.251 533.684 291.827C533.94 285.93 534.197 280.16 534.261 274.326C534.133 252.979 529.964 231.054 521.178 210.925C517.074 201.565 515.278 199.129 506.044 185.218C487.061 156.626 499.374 177.204 469.49 134.253C466.347 129.701 462.884 124.765 459.165 119.508C435.693 86.0445 420.751 73.6078 405.808 62.9661C402.153 60.4018 394.714 57.2606 390.545 55.722C380.798 52.1961 370.601 48.9267 360.019 50.5293C349.181 52.0679 330.135 53.927 319.233 54.0552C316.026 54.1834 312.05 54.1834 311.409 54.1834C303.777 53.4783 296.21 53.927 288.322 53.1577C279.6 52.6449 265.491 52.0679 256.257 52.9654C230.156 57.7734 205.722 70.5948 184.559 86.8138C180.07 90.0833 175.132 93.3527 171.477 97.4555C156.15 113.162 146.53 133.227 129.471 146.946C115.748 158.101 111.515 157.203 102.088 174.833C89.1335 197.334 65.1488 205.027 53.2847 242.465C45.8456 265.864 46.6152 294.905 51.6173 318.688C55.914 331.574 54.9521 329.33 61.4292 348.177C72.3314 378.5 84.7085 412.861 110.425 437.029C114.465 440.299 118.441 443.568 122.481 446.838L122.802 447.094C160.126 477.545 198.668 508.893 243.944 526.33Z" fill="white"/>
<path d="M218.035 531.844C186.996 510.304 162.691 489.02 131.267 467.929C121.712 461.711 113.375 455.044 105.166 447.415C65.9184 410.682 45.8457 350.485 37.5087 297.469C37.4446 296.828 36.8674 289.712 36.8033 282.212C36.6109 262.21 39.4326 242.209 48.0902 224.259C53.7978 209.13 65.2771 199.321 71.1771 194.065C85.9912 180.923 85.927 178.679 90.6085 169.896C92.2118 166.947 95.4824 161.306 95.9313 160.537C100.292 149.959 104.589 153.421 122.417 136.433C133.64 126.24 142.297 114.636 150.378 101.623C154.675 93.2246 162.306 88.096 168.976 82.3905C174.106 78.4159 191.101 65.7869 204.183 58.671C222.588 48.6703 242.276 42.7725 253.243 41.6186C263.632 41.0416 267.8 42.0673 273.123 42.0032C297.941 41.7468 321.541 41.4263 345.975 38.2209C358.288 36.6183 358.865 35.9131 363.29 35.9131C372.012 35.9131 380.413 39.5672 388.429 42.3879C427.613 55.4657 456.151 97.3915 482.957 133.676C503.928 162.075 506.493 162.973 525.09 192.847C533.299 207.207 542.534 234.58 545.163 272.211C545.227 272.852 544.714 283.814 544.265 290.417C546.51 329.138 541.123 367.41 523.423 401.386C489.691 462.865 460.191 480.943 438.322 497.034C407.925 519.407 376.244 542.678 337.381 539.857C331.994 539.857 326.864 539.857 321.798 539.793C274.47 539.536 271.199 541.331 261.387 541.844C247.407 542.613 229.322 540.177 218.035 531.844ZM48.8598 340.485C64.1228 393.629 86.0553 436.068 132.357 466.262C163.909 487.418 188.151 508.701 219.19 530.241C230.22 538.382 248.241 540.562 261.323 539.921C272.738 539.344 272.738 537.613 325.774 537.87C333.213 537.934 337.51 537.87 337.51 537.87C375.667 540.69 406.963 517.676 437.168 495.431C463.846 475.814 477.185 467.352 503.543 429.978C512.264 417.605 521.692 401.963 527.527 387.924C547.6 339.908 542.021 294.905 542.277 290.289C542.662 283.814 542.983 277.916 543.175 272.211C542.342 260.159 540.802 248.748 538.686 238.298C535.544 222.785 530.798 207.848 523.359 193.808C517.138 183.808 510.469 173.743 503.607 163.999C464.872 116.047 438.451 67.1331 396.702 47.7729C391.7 45.465 389.199 44.7598 383.94 42.8366C353.799 31.8744 373.166 42.5161 285.051 43.7982C280.562 43.8623 275.945 43.9264 270.494 43.9905C264.85 43.4136 259.207 43.2213 253.499 43.6059C232.016 46.9395 212.071 55.5939 193.986 67.0049C171.669 82.4546 171.22 83.2239 166.475 87.1344C158.394 93.7375 155.765 96.3017 152.174 102.648C139.54 122.842 125.495 139.574 103.691 153.613C99.9074 155.793 98.0476 160.729 97.727 161.434C93.815 168.037 91.5063 172.461 89.9031 175.602C83.1694 189.064 68.9325 196.693 59.826 208.168C52.7717 216.951 50.8478 222.849 49.8859 225.028C41.2924 242.658 38.599 262.338 38.7913 282.147C38.9196 290.225 38.6631 303.559 48.8598 340.485Z" fill="white"/>
<path d="M335.586 550.691C328.916 550.498 321.477 549.216 290.118 549.216C264.722 549.216 264.85 550.626 252.024 550.691C235.799 550.691 219.382 547.934 206.748 537.741C171.028 508.252 138.578 479.147 101.639 454.017C57.325 429.977 51.8739 370.422 32.4425 319.329C31.4805 316.444 31.3523 312.085 29.9414 305.033C26.6066 282.211 26.4784 258.171 33.6609 236.054C38.6631 220.54 49.3087 203.296 59.9543 192.462C70.7282 181.435 70.2793 187.077 83.2336 164.447C101.767 132.073 98.7531 150.856 129.536 113.418C147.684 91.3651 145.247 91.8139 175.966 69.12C187.317 61.3631 197.962 55.0165 216.368 42.5157C228.36 34.1177 242.02 35.2075 257.604 35.2075C282.935 35.2075 344.885 27.3224 351.811 27.3224C376.629 27.3224 405.231 41.1054 420.879 51.4907C456.407 75.0179 479.173 112.392 510.918 156.305C513.996 160.857 530.798 185.602 531.119 186.051C536.313 195.539 541.7 205.411 544.778 215.861C556.514 248.427 554.141 271.249 552.987 289.968C557.22 331.894 550.935 362.537 539.584 388.885C537.211 394.462 533.62 402.924 520.537 422.285C515.792 431.58 510.341 440.811 504.12 449.722C496.488 462.287 486.933 473.698 474.941 484.596C465.001 493.635 462.051 495.302 453.649 501.072C417.416 526.074 380.028 551.845 335.586 550.691ZM328.467 548.255C332.123 548.575 335.393 548.767 338.472 548.767C385.094 548.767 424.214 518.765 462.243 492.802C478.34 480.045 491.871 466.005 502.453 448.633C508.481 440.042 513.932 431.003 518.806 421.323C518.806 421.323 522.91 415.297 526.63 409.271C533.62 397.86 540.482 384.526 545.933 365.294C556.13 328.753 550.935 291.122 550.999 289.904C552.153 271.313 554.526 248.876 542.919 216.502C539.905 206.18 534.518 196.436 529.387 187.013C474.556 106.302 447.75 66.8122 407.54 45.9134C386.505 35.0793 363.931 26.489 340.46 30.2072C317.565 32.7715 276.265 37.2589 253.179 37.1307C225.41 36.9384 224.897 39.3104 206.492 51.4907C193.794 60.0169 183.084 66.2993 173.465 73.4152C150.57 90.2753 147.877 93.8653 135.884 108.738C97.5987 156.241 104.14 131.881 84.9651 165.473C83.426 168.165 76.2434 180.986 71.2412 185.282C57.1326 195.411 46.7435 211.309 39.2403 226.951C23.849 262.21 31.4164 298.879 33.0838 311.572C34.4305 322.086 32.3142 309.457 49.6294 365.999C60.0184 399.975 70.7923 435.042 102.665 452.351C126.329 466.711 188.599 520.24 208.031 536.267C229.643 553.768 261.644 547.87 279.408 547.357C295.376 547.229 312.05 547.229 328.467 548.255Z" fill="white"/>
<path d="M237.082 558.961C210.147 558.191 190.074 539.344 172.31 522.548C166.218 516.778 159.933 510.881 153.392 505.56C142.618 496.841 129.92 486.584 116.902 476.712C100.869 464.595 98.6889 463.313 93.6868 460.172C83.2977 453.569 70.4075 444.979 58.9282 426.003C45.4609 403.63 40.587 377.731 33.0196 350.421C24.2338 318.496 23.849 328.176 20.7066 306.508C17.9491 286.122 17.3077 264.967 21.4121 244.901C25.5805 224.708 36.2262 201.116 52.0663 187.013C72.3956 168.358 79.0651 148.036 111.579 115.662C123.187 102.712 128.381 95.5324 144.221 81.8777C163.589 65.2099 178.403 56.5555 202.516 39.5672C203.157 39.1825 206.941 36.9388 211.109 35.0156C237.21 22.643 254.782 25.3355 328.852 20.7839C355.787 15.9759 383.363 19.63 408.566 33.6052C444.735 50.85 469.233 82.9675 492.192 115.726C504.825 132.843 513.419 145.215 527.143 165.024C551.64 193.936 561.003 232.657 561.003 271.249C559.785 301.764 559.528 277.981 562.414 304.072C567.737 352.665 554.334 389.014 528.489 427.734C522.846 441.132 515.728 452.992 507.134 464.339C499.887 475.942 490.845 486.264 479.494 496.072C474.556 500.367 469.233 504.342 468.592 504.79C428.703 529.664 387.724 559.217 339.562 559.217C337.83 559.217 333.277 558.961 293.324 559.153C274.598 559.281 255.808 559.409 237.082 558.961ZM39.0479 365.038C47 395.168 54.6956 427.414 81.5662 449.21C89.3901 455.813 98.1118 459.98 105.872 466.006C122.481 478.058 138.834 491.136 154.675 504.021C178.595 523.317 196.872 549.152 226.821 555.627C232.785 556.909 235.414 557.23 268.185 557.23C290.502 557.23 313.14 556.909 335.65 557.102C379.9 558.64 418.25 534.28 455.317 510.817C466.476 503.765 468.72 502.739 478.211 494.598C495.847 479.404 503.094 466.775 505.531 463.249C513.932 452.095 521.05 440.299 526.694 426.901C527.207 425.939 537.532 411.259 546.061 393.565C560.619 362.281 565.621 327.984 558.118 288.943C558.887 276.378 560.298 257.979 555.873 233.298C550.55 206.245 540.354 183.615 525.539 166.178L525.475 166.114C474.684 92.9041 449.545 55.4016 407.668 35.3361C390.225 25.656 371.178 20.7198 351.105 20.7198C338.985 20.7198 329.942 22.5789 328.98 22.7071C233.106 28.669 230.284 22.9635 190.908 49.9525C159.1 71.7488 143.901 81.6213 118.89 110.213C108.244 122.393 102.601 126.624 89.5183 143.228C75.4738 160.986 67.8423 175.153 53.2848 188.423C37.9577 202.142 30.262 221.502 25.8371 234.901C18.9751 257.915 19.2958 282.468 22.5664 306.188C26.0936 330.163 25.5164 312.919 39.0479 365.038Z" fill="white"/>
<path d="M235.094 568.769C207.133 567.936 186.227 548.319 168.014 531.074C161.729 525.112 155.188 518.958 148.39 513.509C137.231 504.47 124.084 493.828 110.553 483.635C93.9432 471.07 91.6345 469.724 86.5041 466.519C76.0509 459.916 62.4553 450.941 50.5271 431.068C36.675 407.925 31.6728 381.321 23.7207 352.665C14.5501 319.586 14.1011 329.587 10.8305 307.149C7.94465 285.994 7.30335 264.134 11.6001 243.299C15.8968 222.528 26.8631 198.039 43.3445 183.295C64.4433 163.999 71.3053 142.843 104.974 109.316C116.902 96.0454 122.353 88.5449 138.834 74.3132C158.971 57.0044 174.491 47.9653 199.245 30.4641C199.886 30.0795 203.798 27.7716 208.159 25.7202C235.286 12.8988 253.627 15.7195 330.199 10.9756C358.095 6.03942 386.762 9.75762 412.799 24.3099C450.251 42.1957 475.646 75.403 499.438 109.38C512.585 127.137 521.179 139.638 535.672 160.473C561.003 190.411 570.815 230.542 570.751 270.608C569.469 302.213 569.212 277.532 572.226 304.649C577.677 354.46 564.274 392.155 537.083 432.799C531.247 446.582 523.872 458.954 514.958 470.75C507.455 482.738 498.028 493.508 486.292 503.637C481.033 508.124 475.646 512.227 475.005 512.676C433.705 538.447 391.187 569.026 341.293 569.026C339.498 569.026 334.88 568.769 293.388 568.962C273.893 569.09 254.461 569.218 235.094 568.769ZM29.8772 367.858C38.15 399.014 46.1021 432.478 73.9346 455.108C82.015 461.903 91.1215 466.262 99.1378 472.545C116.325 485.046 133.255 498.572 149.737 511.906C174.555 531.908 193.473 558.64 224.512 565.372C230.669 566.718 233.491 567.038 267.351 567.038C290.631 567.038 314.038 566.718 337.253 566.91C383.042 568.513 422.739 543.383 461.281 518.958C472.889 511.586 475.197 510.624 485.009 502.098C502.645 486.905 509.828 474.66 513.355 469.596C522.141 457.993 529.451 445.748 535.287 431.965C535.864 430.875 546.574 415.682 555.36 397.412C570.879 364.076 575.497 328.176 567.865 289.007C568.891 272.275 569.725 254.774 565.557 231.311C560.041 203.232 549.46 179.833 534.133 161.755L534.069 161.691C481.674 86.1089 455.445 46.9396 411.901 26.1049C393.816 16.1042 374.128 10.9756 353.286 10.9756C340.78 10.9756 331.353 12.8988 330.391 13.0271C304.419 14.6297 274.47 15.7195 253.435 17.2581C216.111 18.6044 198.027 33.9259 187.253 41.2982C154.482 63.7356 138.642 74.0568 112.605 103.802C101.703 116.239 95.7389 120.855 82.2074 137.971C67.6498 156.434 59.7618 171.05 44.6912 184.833C28.787 199.065 20.8348 219.131 16.2816 232.978C10.8946 251.12 9.80443 269.839 11.0229 288.558C11.4077 294.392 12.049 300.546 12.8827 306.829C16.5381 331.766 15.8327 313.56 29.8772 367.858Z" fill="white"/>
<path d="M263.119 577.359C227.975 576.526 228.681 577.103 221.498 575.692C183.213 568.384 139.219 517.419 76.8206 473.57C36.6751 445.299 31.7371 396.642 16.7948 349.908C13.6524 340.292 11.4078 335.099 11.2154 334.458C4.35351 311.187 -5.58667 287.147 3.9046 247.016C20.5143 186.307 36.6751 182.525 49.9501 164.511C65.4696 142.33 63.2891 137.009 105.359 90.9162C129.407 65.9146 153.905 45.3363 181.417 30.5917C222.14 7.57735 241.058 4.88486 292.747 3.66683C329.75 2.76934 332.444 1.4231 342.64 0.205067C349.695 -0.307788 356.749 0.205066 363.803 1.03846C438.9 8.47485 482.059 68.1583 510.02 106.687C522.461 122.329 527.143 128.867 534.454 138.868C562.543 177.589 582.615 210.796 578.703 287.596C584.026 321.829 583.834 358.37 571.136 390.744C568.763 396.578 566.006 402.219 565.621 402.86C549.139 429.977 549.588 428.311 542.342 439.08C525.604 478.122 496.104 509.598 485.971 516.97C449.738 540.69 406.129 566.14 358.096 575.308C357.454 575.436 350.079 576.141 342.191 576.718C315.77 578.641 289.412 578 263.119 577.359ZM231.952 574.795C274.534 575.243 315.064 578.128 357.711 573.513C405.424 564.409 448.712 539.087 484.817 515.496C488.152 512.739 491.422 509.662 494.693 506.457C525.796 475.301 540.289 438.824 540.61 438.183C548.177 426.9 546.189 430.682 556.13 414.592C563.056 403.437 564.787 400.937 569.276 390.103C587.938 342.536 576.587 290.417 576.715 287.66C581.076 201.629 555.745 167.46 508.481 107.969C482.444 72.0688 439.156 10.5904 363.675 3.08987C356.813 2.25649 349.887 1.74363 342.961 2.25649C302.559 8.66717 261.002 1.74363 221.691 13.988C213.61 16.5523 208.544 18.6037 196.167 24.8862C162.306 42.0668 129.856 63.9273 89.1336 112.264C73.7424 130.534 71.8185 133.355 62.1989 148.933C52.0664 165.473 50.0142 168.165 42.6392 175.858C25.5165 192.526 16.8589 211.694 9.80457 233.81C5.95676 245.862 4.86655 250.927 3.84047 257.145C-1.73886 290.801 6.21328 310.546 13.1393 333.689C32.4425 381.513 33.2762 440.491 77.975 471.967C146.081 519.919 190.844 574.795 231.952 574.795Z" fill="white"/>
</g>
</g>
</svg>
